<svg xmlns="http://www.w3.org/2000/svg" xmlns:xlink="http://www.w3.org/1999/xlink" width="500" zoomAndPan="magnify" viewBox="0 0 375 374.999991" height="500" preserveAspectRatio="xMidYMid meet" version="1.0"><defs><clipPath id="95d9882856"><path d="M 10 10.78125 L 365 10.78125 L 365 364.03125 L 10 364.03125 Z M 10 10.78125 " clip-rule="nonzero"/></clipPath></defs><g clip-path="url(#95d9882856)"><path fill="#000000" d="M 187.5 10.78125 C 121.761719 10.78125 67.507812 28.453125 42.238281 57.257812 C 0.179688 106.03125 0.179688 269.320312 42.238281 317.742188 C 67.507812 346.546875 121.761719 364.21875 187.5 364.21875 C 253.238281 364.21875 307.492188 346.546875 332.761719 317.742188 C 374.820312 268.96875 374.820312 105.679688 332.761719 57.257812 C 307.492188 28.453125 253.238281 10.78125 187.5 10.78125 Z M 187.5 10.78125 " fill-opacity="1" fill-rule="nonzero"/></g><path fill="#ffffff" d="M 187.5 258.1875 C 186.921875 258.1875 186.34375 258.160156 185.769531 258.101562 C 185.191406 258.046875 184.621094 257.960938 184.050781 257.847656 C 183.484375 257.734375 182.925781 257.59375 182.371094 257.425781 C 181.816406 257.257812 181.273438 257.0625 180.738281 256.84375 C 180.203125 256.621094 179.679688 256.375 179.167969 256.101562 C 178.660156 255.828125 178.164062 255.53125 177.683594 255.210938 C 177.199219 254.886719 176.738281 254.542969 176.289062 254.175781 C 175.839844 253.808594 175.414062 253.421875 175.003906 253.011719 C 174.59375 252.601562 174.207031 252.175781 173.839844 251.726562 C 173.472656 251.277344 173.128906 250.816406 172.804688 250.332031 C 172.484375 249.851562 172.1875 249.355469 171.914062 248.847656 C 171.640625 248.335938 171.394531 247.8125 171.171875 247.277344 C 170.953125 246.742188 170.757812 246.199219 170.589844 245.644531 C 170.421875 245.089844 170.28125 244.53125 170.167969 243.964844 C 170.054688 243.394531 169.96875 242.824219 169.914062 242.246094 C 169.855469 241.671875 169.828125 241.09375 169.828125 240.515625 L 169.828125 134.484375 C 169.828125 133.90625 169.855469 133.328125 169.914062 132.753906 C 169.96875 132.175781 170.054688 131.605469 170.167969 131.035156 C 170.28125 130.46875 170.421875 129.910156 170.589844 129.355469 C 170.757812 128.800781 170.953125 128.257812 171.171875 127.722656 C 171.394531 127.1875 171.640625 126.664062 171.914062 126.152344 C 172.1875 125.644531 172.484375 125.148438 172.804688 124.667969 C 173.128906 124.183594 173.472656 123.722656 173.839844 123.273438 C 174.207031 122.824219 174.59375 122.398438 175.003906 121.988281 C 175.414062 121.578125 175.839844 121.191406 176.289062 120.824219 C 176.738281 120.457031 177.199219 120.113281 177.683594 119.789062 C 178.164062 119.46875 178.660156 119.171875 179.167969 118.898438 C 179.679688 118.625 180.203125 118.378906 180.738281 118.15625 C 181.273438 117.9375 181.816406 117.742188 182.371094 117.574219 C 182.925781 117.40625 183.484375 117.265625 184.050781 117.152344 C 184.621094 117.039062 185.191406 116.953125 185.769531 116.898438 C 186.34375 116.839844 186.921875 116.8125 187.5 116.8125 C 188.078125 116.8125 188.65625 116.839844 189.230469 116.898438 C 189.808594 116.953125 190.378906 117.039062 190.949219 117.152344 C 191.515625 117.265625 192.074219 117.40625 192.628906 117.574219 C 193.183594 117.742188 193.726562 117.9375 194.261719 118.15625 C 194.796875 118.378906 195.320312 118.625 195.832031 118.898438 C 196.339844 119.171875 196.835938 119.46875 197.316406 119.789062 C 197.800781 120.113281 198.261719 120.457031 198.710938 120.824219 C 199.160156 121.191406 199.585938 121.578125 199.996094 121.988281 C 200.40625 122.398438 200.792969 122.824219 201.160156 123.273438 C 201.527344 123.722656 201.871094 124.183594 202.195312 124.667969 C 202.515625 125.148438 202.8125 125.644531 203.085938 126.152344 C 203.359375 126.664062 203.605469 127.1875 203.828125 127.722656 C 204.046875 128.257812 204.242188 128.800781 204.410156 129.355469 C 204.578125 129.910156 204.71875 130.46875 204.832031 131.035156 C 204.945312 131.605469 205.03125 132.175781 205.085938 132.753906 C 205.144531 133.328125 205.171875 133.90625 205.171875 134.484375 L 205.171875 240.515625 C 205.171875 241.09375 205.144531 241.671875 205.085938 242.246094 C 205.03125 242.824219 204.945312 243.394531 204.832031 243.964844 C 204.71875 244.53125 204.578125 245.089844 204.410156 245.644531 C 204.242188 246.199219 204.046875 246.742188 203.828125 247.277344 C 203.605469 247.8125 203.359375 248.335938 203.085938 248.847656 C 202.8125 249.355469 202.515625 249.851562 202.195312 250.332031 C 201.871094 250.816406 201.527344 251.277344 201.160156 251.726562 C 200.792969 252.175781 200.40625 252.601562 199.996094 253.011719 C 199.585938 253.421875 199.160156 253.808594 198.710938 254.175781 C 198.261719 254.542969 197.800781 254.886719 197.316406 255.210938 C 196.835938 255.53125 196.339844 255.828125 195.832031 256.101562 C 195.320312 256.375 194.796875 256.621094 194.261719 256.84375 C 193.726562 257.0625 193.183594 257.257812 192.628906 257.425781 C 192.074219 257.59375 191.515625 257.734375 190.949219 257.847656 C 190.378906 257.960938 189.808594 258.046875 189.230469 258.101562 C 188.65625 258.160156 188.078125 258.1875 187.5 258.1875 Z M 187.5 258.1875 " fill-opacity="1" fill-rule="nonzero"/><path fill="#ffffff" d="M 240.515625 205.171875 L 134.484375 205.171875 C 133.90625 205.171875 133.328125 205.144531 132.753906 205.085938 C 132.175781 205.03125 131.605469 204.945312 131.035156 204.832031 C 130.46875 204.71875 129.910156 204.578125 129.355469 204.410156 C 128.800781 204.242188 128.257812 204.046875 127.722656 203.828125 C 127.1875 203.605469 126.664062 203.359375 126.152344 203.085938 C 125.644531 202.8125 125.148438 202.515625 124.667969 202.195312 C 124.183594 201.871094 123.722656 201.527344 123.273438 201.160156 C 122.824219 200.792969 122.398438 200.40625 121.988281 199.996094 C 121.578125 199.585938 121.191406 199.160156 120.824219 198.710938 C 120.457031 198.261719 120.113281 197.800781 119.789062 197.316406 C 119.46875 196.835938 119.171875 196.339844 118.898438 195.832031 C 118.625 195.320312 118.378906 194.796875 118.15625 194.261719 C 117.9375 193.726562 117.742188 193.183594 117.574219 192.628906 C 117.40625 192.074219 117.265625 191.515625 117.152344 190.949219 C 117.039062 190.378906 116.953125 189.808594 116.898438 189.230469 C 116.839844 188.65625 116.8125 188.078125 116.8125 187.5 C 116.8125 186.921875 116.839844 186.34375 116.898438 185.769531 C 116.953125 185.191406 117.039062 184.621094 117.152344 184.050781 C 117.265625 183.484375 117.40625 182.925781 117.574219 182.371094 C 117.742188 181.816406 117.9375 181.273438 118.15625 180.738281 C 118.378906 180.203125 118.625 179.679688 118.898438 179.167969 C 119.171875 178.660156 119.46875 178.164062 119.789062 177.683594 C 120.113281 177.199219 120.457031 176.738281 120.824219 176.289062 C 121.191406 175.839844 121.578125 175.414062 121.988281 175.003906 C 122.398438 174.59375 122.824219 174.207031 123.273438 173.839844 C 123.722656 173.472656 124.183594 173.128906 124.667969 172.804688 C 125.148438 172.484375 125.644531 172.1875 126.152344 171.914062 C 126.664062 171.640625 127.1875 171.394531 127.722656 171.171875 C 128.257812 170.953125 128.800781 170.757812 129.355469 170.589844 C 129.910156 170.421875 130.46875 170.28125 131.035156 170.167969 C 131.605469 170.054688 132.175781 169.96875 132.753906 169.914062 C 133.328125 169.855469 133.90625 169.828125 134.484375 169.828125 L 240.515625 169.828125 C 241.09375 169.828125 241.671875 169.855469 242.246094 169.914062 C 242.824219 169.96875 243.394531 170.054688 243.964844 170.167969 C 244.53125 170.28125 245.089844 170.421875 245.644531 170.589844 C 246.199219 170.757812 246.742188 170.953125 247.277344 171.171875 C 247.8125 171.394531 248.335938 171.640625 248.847656 171.914062 C 249.355469 172.1875 249.851562 172.484375 250.332031 172.804688 C 250.816406 173.128906 251.277344 173.472656 251.726562 173.839844 C 252.175781 174.207031 252.601562 174.59375 253.011719 175.003906 C 253.421875 175.414062 253.808594 175.839844 254.175781 176.289062 C 254.542969 176.738281 254.886719 177.199219 255.210938 177.683594 C 255.53125 178.164062 255.828125 178.660156 256.101562 179.167969 C 256.375 179.679688 256.621094 180.203125 256.84375 180.738281 C 257.0625 181.273438 257.257812 181.816406 257.425781 182.371094 C 257.59375 182.925781 257.734375 183.484375 257.847656 184.050781 C 257.960938 184.621094 258.046875 185.191406 258.101562 185.769531 C 258.160156 186.34375 258.1875 186.921875 258.1875 187.5 C 258.1875 188.078125 258.160156 188.65625 258.101562 189.230469 C 258.046875 189.808594 257.960938 190.378906 257.847656 190.949219 C 257.734375 191.515625 257.59375 192.074219 257.425781 192.628906 C 257.257812 193.183594 257.0625 193.726562 256.84375 194.261719 C 256.621094 194.796875 256.375 195.320312 256.101562 195.832031 C 255.828125 196.339844 255.53125 196.835938 255.210938 197.316406 C 254.886719 197.800781 254.542969 198.261719 254.175781 198.710938 C 253.808594 199.160156 253.421875 199.585938 253.011719 199.996094 C 252.601562 200.40625 252.175781 200.792969 251.726562 201.160156 C 251.277344 201.527344 250.816406 201.871094 250.332031 202.195312 C 249.851562 202.515625 249.355469 202.8125 248.847656 203.085938 C 248.335938 203.359375 247.8125 203.605469 247.277344 203.828125 C 246.742188 204.046875 246.199219 204.242188 245.644531 204.410156 C 245.089844 204.578125 244.53125 204.71875 243.964844 204.832031 C 243.394531 204.945312 242.824219 205.03125 242.246094 205.085938 C 241.671875 205.144531 241.09375 205.171875 240.515625 205.171875 Z M 240.515625 205.171875 " fill-opacity="1" fill-rule="nonzero"/></svg>