<svg xmlns="http://www.w3.org/2000/svg" xmlns:xlink="http://www.w3.org/1999/xlink" width="500" zoomAndPan="magnify" viewBox="0 0 375 374.999991" height="500" preserveAspectRatio="xMidYMid meet" version="1.0"><defs><g/></defs><path fill="#000000" d="M 232.136719 85.308594 C 232.136719 86.355469 232.113281 87.398438 232.0625 88.445312 C 232.011719 89.492188 231.933594 90.535156 231.832031 91.574219 C 231.726562 92.617188 231.601562 93.65625 231.445312 94.691406 C 231.292969 95.726562 231.113281 96.757812 230.910156 97.78125 C 230.703125 98.808594 230.476562 99.832031 230.222656 100.84375 C 229.96875 101.859375 229.6875 102.867188 229.382812 103.871094 C 229.078125 104.871094 228.75 105.867188 228.398438 106.851562 C 228.046875 107.835938 227.667969 108.8125 227.269531 109.78125 C 226.867188 110.746094 226.445312 111.703125 225.996094 112.648438 C 225.546875 113.59375 225.078125 114.53125 224.585938 115.453125 C 224.089844 116.375 223.574219 117.285156 223.035156 118.183594 C 222.496094 119.082031 221.9375 119.964844 221.355469 120.835938 C 220.773438 121.707031 220.171875 122.5625 219.546875 123.402344 C 218.925781 124.242188 218.28125 125.066406 217.617188 125.875 C 216.953125 126.683594 216.269531 127.476562 215.566406 128.253906 C 214.863281 129.027344 214.140625 129.785156 213.398438 130.527344 C 212.660156 131.265625 211.902344 131.988281 211.125 132.691406 C 210.347656 133.394531 209.558594 134.078125 208.746094 134.742188 C 207.9375 135.40625 207.113281 136.046875 206.273438 136.671875 C 205.429688 137.292969 204.574219 137.898438 203.703125 138.480469 C 202.832031 139.058594 201.949219 139.621094 201.050781 140.15625 C 200.152344 140.695312 199.242188 141.210938 198.320312 141.707031 C 197.394531 142.199219 196.460938 142.667969 195.515625 143.117188 C 194.566406 143.5625 193.609375 143.988281 192.644531 144.386719 C 191.675781 144.789062 190.699219 145.164062 189.714844 145.519531 C 188.726562 145.871094 187.734375 146.199219 186.730469 146.503906 C 185.730469 146.804688 184.71875 147.085938 183.703125 147.339844 C 182.6875 147.59375 181.667969 147.824219 180.640625 148.027344 C 179.613281 148.230469 178.582031 148.410156 177.546875 148.5625 C 176.511719 148.71875 175.472656 148.84375 174.429688 148.949219 C 173.386719 149.050781 172.34375 149.128906 171.296875 149.179688 C 170.253906 149.230469 169.207031 149.257812 168.160156 149.257812 C 167.113281 149.257812 166.066406 149.230469 165.019531 149.179688 C 163.972656 149.128906 162.929688 149.050781 161.886719 148.949219 C 160.847656 148.84375 159.808594 148.71875 158.773438 148.5625 C 157.734375 148.410156 156.703125 148.230469 155.675781 148.027344 C 154.652344 147.824219 153.628906 147.59375 152.613281 147.339844 C 151.597656 147.085938 150.589844 146.804688 149.585938 146.503906 C 148.585938 146.199219 147.589844 145.871094 146.605469 145.519531 C 145.621094 145.164062 144.644531 144.789062 143.675781 144.386719 C 142.707031 143.988281 141.75 143.5625 140.804688 143.117188 C 139.859375 142.667969 138.921875 142.199219 138 141.707031 C 137.078125 141.210938 136.164062 140.695312 135.265625 140.15625 C 134.371094 139.621094 133.484375 139.058594 132.613281 138.480469 C 131.742188 137.898438 130.886719 137.292969 130.046875 136.671875 C 129.207031 136.046875 128.378906 135.40625 127.570312 134.742188 C 126.761719 134.078125 125.96875 133.394531 125.195312 132.691406 C 124.417969 131.988281 123.660156 131.265625 122.917969 130.527344 C 122.179688 129.785156 121.457031 129.027344 120.753906 128.253906 C 120.050781 127.476562 119.367188 126.683594 118.703125 125.875 C 118.039062 125.066406 117.394531 124.242188 116.769531 123.402344 C 116.148438 122.5625 115.542969 121.707031 114.960938 120.835938 C 114.378906 119.964844 113.820312 119.082031 113.28125 118.183594 C 112.742188 117.285156 112.226562 116.375 111.734375 115.453125 C 111.242188 114.53125 110.769531 113.59375 110.324219 112.648438 C 109.875 111.703125 109.449219 110.746094 109.050781 109.78125 C 108.648438 108.8125 108.273438 107.835938 107.921875 106.851562 C 107.566406 105.867188 107.238281 104.871094 106.933594 103.871094 C 106.632812 102.867188 106.351562 101.859375 106.097656 100.84375 C 105.84375 99.832031 105.613281 98.808594 105.410156 97.78125 C 105.203125 96.757812 105.027344 95.726562 104.871094 94.691406 C 104.71875 93.65625 104.589844 92.617188 104.488281 91.574219 C 104.386719 90.535156 104.308594 89.492188 104.257812 88.445312 C 104.207031 87.398438 104.179688 86.355469 104.179688 85.308594 C 104.179688 84.261719 104.207031 83.214844 104.257812 82.167969 C 104.308594 81.125 104.386719 80.082031 104.488281 79.039062 C 104.589844 77.996094 104.71875 76.960938 104.871094 75.925781 C 105.027344 74.890625 105.203125 73.859375 105.410156 72.832031 C 105.613281 71.804688 105.84375 70.785156 106.097656 69.769531 C 106.351562 68.753906 106.632812 67.746094 106.933594 66.742188 C 107.238281 65.742188 107.566406 64.75 107.921875 63.761719 C 108.273438 62.777344 108.648438 61.800781 109.050781 60.835938 C 109.449219 59.867188 109.875 58.910156 110.324219 57.964844 C 110.769531 57.019531 111.242188 56.085938 111.734375 55.160156 C 112.226562 54.238281 112.742188 53.328125 113.28125 52.429688 C 113.820312 51.535156 114.378906 50.648438 114.960938 49.777344 C 115.542969 48.910156 116.148438 48.054688 116.769531 47.214844 C 117.394531 46.371094 118.039062 45.546875 118.703125 44.738281 C 119.367188 43.929688 120.050781 43.136719 120.753906 42.363281 C 121.457031 41.585938 122.179688 40.828125 122.917969 40.089844 C 123.660156 39.347656 124.417969 38.628906 125.195312 37.925781 C 125.96875 37.222656 126.761719 36.539062 127.570312 35.875 C 128.378906 35.210938 129.207031 34.566406 130.046875 33.941406 C 130.886719 33.320312 131.742188 32.71875 132.613281 32.136719 C 133.484375 31.554688 134.371094 30.996094 135.265625 30.457031 C 136.164062 29.917969 137.078125 29.402344 138 28.910156 C 138.921875 28.417969 139.859375 27.945312 140.804688 27.5 C 141.75 27.050781 142.707031 26.625 143.675781 26.226562 C 144.644531 25.824219 145.621094 25.449219 146.605469 25.097656 C 147.589844 24.742188 148.585938 24.414062 149.585938 24.113281 C 150.589844 23.808594 151.597656 23.527344 152.613281 23.273438 C 153.628906 23.019531 154.652344 22.792969 155.675781 22.585938 C 156.703125 22.382812 157.734375 22.203125 158.773438 22.050781 C 159.808594 21.898438 160.847656 21.769531 161.886719 21.667969 C 162.929688 21.5625 163.972656 21.488281 165.019531 21.433594 C 166.066406 21.382812 167.113281 21.359375 168.160156 21.359375 C 169.207031 21.359375 170.253906 21.382812 171.296875 21.433594 C 172.34375 21.488281 173.386719 21.5625 174.429688 21.667969 C 175.472656 21.769531 176.511719 21.898438 177.546875 22.050781 C 178.582031 22.203125 179.613281 22.382812 180.640625 22.585938 C 181.667969 22.792969 182.6875 23.019531 183.703125 23.273438 C 184.71875 23.527344 185.730469 23.808594 186.730469 24.113281 C 187.734375 24.414062 188.726562 24.742188 189.714844 25.097656 C 190.699219 25.449219 191.675781 25.824219 192.644531 26.226562 C 193.609375 26.625 194.566406 27.050781 195.515625 27.5 C 196.460938 27.945312 197.394531 28.417969 198.320312 28.910156 C 199.242188 29.402344 200.152344 29.917969 201.050781 30.457031 C 201.949219 30.996094 202.832031 31.554688 203.703125 32.136719 C 204.574219 32.71875 205.429688 33.320312 206.273438 33.941406 C 207.113281 34.566406 207.9375 35.210938 208.746094 35.875 C 209.558594 36.539062 210.347656 37.222656 211.125 37.925781 C 211.902344 38.628906 212.660156 39.347656 213.398438 40.089844 C 214.140625 40.828125 214.863281 41.585938 215.566406 42.363281 C 216.269531 43.136719 216.953125 43.929688 217.617188 44.738281 C 218.28125 45.546875 218.925781 46.371094 219.546875 47.214844 C 220.171875 48.054688 220.773438 48.910156 221.355469 49.777344 C 221.9375 50.648438 222.496094 51.535156 223.035156 52.429688 C 223.574219 53.328125 224.089844 54.238281 224.585938 55.160156 C 225.078125 56.085938 225.546875 57.019531 225.996094 57.964844 C 226.445312 58.910156 226.867188 59.867188 227.269531 60.835938 C 227.667969 61.800781 228.046875 62.777344 228.398438 63.761719 C 228.75 64.75 229.078125 65.742188 229.382812 66.742188 C 229.6875 67.746094 229.96875 68.753906 230.222656 69.769531 C 230.476562 70.785156 230.703125 71.804688 230.910156 72.832031 C 231.113281 73.859375 231.292969 74.890625 231.445312 75.925781 C 231.601562 76.960938 231.726562 77.996094 231.832031 79.039062 C 231.933594 80.082031 232.011719 81.125 232.0625 82.167969 C 232.113281 83.214844 232.136719 84.261719 232.136719 85.308594 Z M 232.136719 85.308594 " fill-opacity="1" fill-rule="nonzero"/><path fill="#000000" d="M 190.863281 217.332031 C 190.867188 221.195312 191.242188 225.019531 191.988281 228.8125 C 192.734375 232.601562 193.832031 236.285156 195.292969 239.863281 C 196.75 243.441406 198.535156 246.847656 200.652344 250.082031 C 202.765625 253.3125 205.171875 256.316406 207.867188 259.082031 C 194.953125 262.835938 181.773438 264.707031 168.324219 264.695312 C 160.296875 264.632812 152.320312 263.941406 144.402344 262.621094 C 136.484375 261.300781 128.71875 259.363281 121.105469 256.8125 C 113.492188 254.261719 106.128906 251.128906 99.011719 247.414062 C 91.894531 243.699219 85.113281 239.445312 78.671875 234.660156 C 77.5 233.785156 76.449219 232.792969 75.511719 231.675781 C 74.578125 230.554688 73.785156 229.34375 73.132812 228.042969 C 72.480469 226.738281 71.984375 225.375 71.652344 223.957031 C 71.320312 222.539062 71.15625 221.097656 71.160156 219.640625 C 71.167969 217.667969 71.25 215.699219 71.398438 213.734375 C 71.550781 211.769531 71.769531 209.8125 72.058594 207.863281 C 72.347656 205.910156 72.707031 203.972656 73.132812 202.050781 C 73.558594 200.125 74.054688 198.21875 74.617188 196.328125 C 75.179688 194.4375 75.804688 192.570312 76.5 190.726562 C 77.195312 188.878906 77.953125 187.0625 78.777344 185.269531 C 79.597656 183.476562 80.484375 181.71875 81.433594 179.988281 C 82.378906 178.261719 83.386719 176.566406 84.457031 174.910156 C 85.523438 173.253906 86.648438 171.632812 87.832031 170.058594 C 89.015625 168.480469 90.25 166.945312 91.542969 165.453125 C 92.835938 163.964844 94.175781 162.523438 95.570312 161.128906 C 96.964844 159.730469 98.40625 158.386719 99.894531 157.09375 C 101.382812 155.800781 102.917969 154.5625 104.492188 153.378906 C 106.070312 152.195312 107.6875 151.066406 109.34375 149.996094 C 111 148.929688 112.691406 147.917969 114.421875 146.96875 C 116.148438 146.019531 117.910156 145.128906 119.699219 144.304688 C 121.390625 145.691406 123.136719 147.003906 124.941406 148.238281 C 126.742188 149.472656 128.59375 150.632812 130.496094 151.707031 C 132.398438 152.785156 134.34375 153.777344 136.332031 154.691406 C 138.320312 155.601562 140.339844 156.421875 142.398438 157.160156 C 144.457031 157.898438 146.542969 158.542969 148.65625 159.101562 C 150.773438 159.660156 152.90625 160.125 155.058594 160.5 C 157.214844 160.875 159.378906 161.160156 161.558594 161.347656 C 163.734375 161.535156 165.917969 161.632812 168.101562 161.632812 C 170.289062 161.636719 172.472656 161.542969 174.648438 161.359375 C 176.828125 161.171875 178.996094 160.894531 181.148438 160.523438 C 183.304688 160.152344 185.4375 159.691406 187.554688 159.136719 C 189.667969 158.582031 191.753906 157.9375 193.8125 157.203125 C 195.875 156.472656 197.898438 155.652344 199.886719 154.742188 C 201.875 153.835938 203.824219 152.847656 205.726562 151.773438 C 207.628906 150.699219 209.484375 149.542969 211.289062 148.3125 C 213.09375 147.078125 214.84375 145.769531 216.535156 144.386719 C 223.367188 147.394531 229.613281 151.328125 235.277344 156.1875 C 236.222656 156.9375 236.828125 157.898438 237.09375 159.074219 C 235.46875 159.464844 233.863281 159.921875 232.277344 160.449219 C 230.6875 160.972656 229.128906 161.5625 227.589844 162.214844 C 226.050781 162.867188 224.546875 163.585938 223.066406 164.363281 C 221.589844 165.144531 220.144531 165.980469 218.738281 166.878906 C 217.328125 167.78125 215.960938 168.734375 214.632812 169.746094 C 213.304688 170.757812 212.019531 171.824219 210.777344 172.945312 C 209.539062 174.0625 208.347656 175.230469 207.203125 176.449219 C 206.058594 177.667969 204.96875 178.929688 203.929688 180.238281 C 202.894531 181.546875 201.910156 182.894531 200.984375 184.285156 C 200.058594 185.675781 199.191406 187.101562 198.382812 188.5625 C 197.574219 190.027344 196.828125 191.519531 196.144531 193.042969 C 195.460938 194.566406 194.84375 196.117188 194.289062 197.691406 C 193.734375 199.265625 193.246094 200.859375 192.820312 202.476562 C 192.398438 204.09375 192.042969 205.722656 191.757812 207.367188 C 191.46875 209.011719 191.253906 210.667969 191.101562 212.332031 C 190.953125 213.992188 190.871094 215.660156 190.863281 217.332031 Z M 190.863281 217.332031 " fill-opacity="1" fill-rule="nonzero"/><path fill="#000000" d="M 250.714844 169.882812 C 249.160156 169.882812 247.609375 169.960938 246.058594 170.113281 C 244.511719 170.265625 242.976562 170.492188 241.453125 170.796875 C 239.929688 171.097656 238.421875 171.476562 236.933594 171.929688 C 235.445312 172.378906 233.984375 172.902344 232.546875 173.496094 C 231.113281 174.089844 229.707031 174.753906 228.335938 175.488281 C 226.964844 176.21875 225.632812 177.015625 224.339844 177.878906 C 223.046875 178.742188 221.800781 179.667969 220.597656 180.65625 C 219.398438 181.640625 218.246094 182.683594 217.148438 183.78125 C 216.046875 184.878906 215.007812 186.03125 214.019531 187.230469 C 213.035156 188.433594 212.109375 189.679688 211.246094 190.972656 C 210.382812 192.261719 209.582031 193.59375 208.851562 194.964844 C 208.117188 196.335938 207.453125 197.738281 206.859375 199.175781 C 206.261719 200.609375 205.738281 202.070312 205.289062 203.558594 C 204.835938 205.042969 204.460938 206.550781 204.15625 208.074219 C 203.855469 209.597656 203.625 211.132812 203.472656 212.679688 C 203.320312 214.226562 203.246094 215.777344 203.246094 217.332031 C 203.246094 218.882812 203.320312 220.433594 203.472656 221.980469 C 203.625 223.527344 203.855469 225.0625 204.15625 226.585938 C 204.460938 228.109375 204.835938 229.617188 205.289062 231.101562 C 205.738281 232.589844 206.261719 234.050781 206.859375 235.488281 C 207.453125 236.921875 208.117188 238.324219 208.851562 239.695312 C 209.582031 241.066406 210.382812 242.398438 211.246094 243.691406 C 212.109375 244.980469 213.035156 246.230469 214.019531 247.429688 C 215.007812 248.632812 216.046875 249.78125 217.148438 250.878906 C 218.246094 251.980469 219.398438 253.019531 220.597656 254.007812 C 221.800781 254.992188 223.046875 255.917969 224.339844 256.78125 C 225.632812 257.644531 226.964844 258.441406 228.335938 259.175781 C 229.707031 259.90625 231.113281 260.570312 232.546875 261.164062 C 233.984375 261.757812 235.445312 262.28125 236.933594 262.734375 C 238.421875 263.183594 239.929688 263.5625 241.453125 263.863281 C 242.976562 264.167969 244.511719 264.394531 246.0625 264.546875 C 247.609375 264.699219 249.160156 264.777344 250.714844 264.777344 C 252.269531 264.777344 253.820312 264.699219 255.367188 264.546875 C 256.914062 264.394531 258.449219 264.167969 259.972656 263.863281 C 261.5 263.5625 263.003906 263.183594 264.492188 262.734375 C 265.980469 262.28125 267.441406 261.757812 268.878906 261.164062 C 270.316406 260.570312 271.71875 259.90625 273.089844 259.175781 C 274.460938 258.441406 275.792969 257.644531 277.085938 256.78125 C 278.378906 255.917969 279.625 254.992188 280.828125 254.007812 C 282.027344 253.019531 283.179688 251.980469 284.277344 250.878906 C 285.378906 249.78125 286.421875 248.632812 287.40625 247.429688 C 288.394531 246.230469 289.316406 244.980469 290.183594 243.691406 C 291.046875 242.398438 291.84375 241.066406 292.578125 239.695312 C 293.308594 238.324219 293.972656 236.921875 294.570312 235.488281 C 295.164062 234.050781 295.6875 232.589844 296.136719 231.101562 C 296.589844 229.617188 296.964844 228.109375 297.269531 226.585938 C 297.574219 225.0625 297.800781 223.527344 297.953125 221.980469 C 298.105469 220.433594 298.183594 218.882812 298.183594 217.332031 C 298.183594 215.777344 298.105469 214.226562 297.953125 212.679688 C 297.800781 211.132812 297.574219 209.597656 297.269531 208.074219 C 296.964844 206.550781 296.589844 205.042969 296.136719 203.558594 C 295.6875 202.070312 295.164062 200.609375 294.570312 199.175781 C 293.972656 197.738281 293.308594 196.335938 292.578125 194.964844 C 291.84375 193.59375 291.046875 192.261719 290.183594 190.972656 C 289.316406 189.679688 288.394531 188.433594 287.40625 187.230469 C 286.421875 186.03125 285.378906 184.878906 284.277344 183.78125 C 283.179688 182.683594 282.027344 181.640625 280.828125 180.65625 C 279.625 179.667969 278.378906 178.742188 277.085938 177.878906 C 275.792969 177.015625 274.460938 176.21875 273.089844 175.488281 C 271.71875 174.753906 270.316406 174.089844 268.878906 173.496094 C 267.441406 172.902344 265.980469 172.378906 264.492188 171.929688 C 263.003906 171.476562 261.5 171.097656 259.972656 170.796875 C 258.449219 170.492188 256.914062 170.265625 255.367188 170.113281 C 253.820312 169.960938 252.269531 169.882812 250.714844 169.882812 Z M 221.5625 212.957031 L 238.074219 196.453125 C 238.367188 196.175781 238.679688 195.925781 239.019531 195.707031 C 239.359375 195.488281 239.71875 195.304688 240.09375 195.152344 C 240.46875 195.003906 240.851562 194.890625 241.25 194.8125 C 241.648438 194.734375 242.046875 194.695312 242.453125 194.695312 C 242.855469 194.695312 243.253906 194.734375 243.652344 194.8125 C 244.050781 194.890625 244.433594 195.003906 244.808594 195.152344 C 245.183594 195.304688 245.542969 195.488281 245.882812 195.707031 C 246.222656 195.925781 246.539062 196.175781 246.828125 196.453125 C 247.117188 196.742188 247.371094 197.054688 247.597656 197.390625 C 247.824219 197.730469 248.015625 198.085938 248.171875 198.460938 C 248.328125 198.835938 248.445312 199.222656 248.523438 199.621094 C 248.601562 200.019531 248.640625 200.421875 248.640625 200.828125 C 248.640625 201.234375 248.601562 201.636719 248.523438 202.035156 C 248.445312 202.433594 248.328125 202.820312 248.171875 203.199219 C 248.015625 203.574219 247.824219 203.929688 247.597656 204.265625 C 247.371094 204.605469 247.117188 204.917969 246.828125 205.207031 L 240.886719 211.144531 L 275.472656 211.144531 C 275.878906 211.144531 276.28125 211.1875 276.679688 211.265625 C 277.078125 211.34375 277.464844 211.460938 277.839844 211.617188 C 278.214844 211.773438 278.574219 211.964844 278.910156 212.1875 C 279.25 212.414062 279.5625 212.671875 279.847656 212.957031 C 280.136719 213.246094 280.394531 213.558594 280.621094 213.898438 C 280.84375 214.234375 281.035156 214.589844 281.191406 214.964844 C 281.347656 215.34375 281.464844 215.730469 281.542969 216.128906 C 281.625 216.527344 281.664062 216.929688 281.664062 217.335938 C 281.664062 217.742188 281.625 218.144531 281.542969 218.542969 C 281.464844 218.941406 281.347656 219.328125 281.191406 219.703125 C 281.035156 220.078125 280.84375 220.433594 280.621094 220.773438 C 280.394531 221.109375 280.136719 221.421875 279.847656 221.710938 C 279.5625 221.996094 279.25 222.253906 278.910156 222.480469 C 278.574219 222.707031 278.214844 222.898438 277.839844 223.050781 C 277.464844 223.207031 277.078125 223.324219 276.679688 223.40625 C 276.28125 223.484375 275.878906 223.523438 275.472656 223.523438 L 240.890625 223.523438 L 246.832031 229.464844 C 247.109375 229.753906 247.351562 230.066406 247.566406 230.40625 C 247.78125 230.742188 247.957031 231.097656 248.105469 231.46875 C 248.25 231.839844 248.355469 232.222656 248.429688 232.613281 C 248.5 233.007812 248.53125 233.402344 248.527344 233.800781 C 248.523438 234.203125 248.476562 234.597656 248.394531 234.988281 C 248.3125 235.378906 248.195312 235.757812 248.039062 236.125 C 247.886719 236.492188 247.695312 236.84375 247.472656 237.171875 C 247.25 237.503906 246.996094 237.8125 246.714844 238.09375 C 246.433594 238.375 246.125 238.628906 245.796875 238.851562 C 245.464844 239.074219 245.113281 239.261719 244.746094 239.417969 C 244.378906 239.574219 244 239.691406 243.609375 239.773438 C 243.21875 239.855469 242.824219 239.902344 242.421875 239.90625 C 242.023438 239.910156 241.628906 239.878906 241.234375 239.808594 C 240.84375 239.738281 240.460938 239.628906 240.085938 239.484375 C 239.714844 239.339844 239.359375 239.160156 239.023438 238.945312 C 238.6875 238.734375 238.371094 238.488281 238.082031 238.214844 L 221.570312 221.710938 C 221.289062 221.421875 221.039062 221.105469 220.816406 220.765625 C 220.597656 220.429688 220.410156 220.070312 220.257812 219.695312 C 220.105469 219.320312 219.992188 218.933594 219.914062 218.539062 C 219.835938 218.140625 219.796875 217.738281 219.796875 217.335938 C 219.796875 216.929688 219.835938 216.527344 219.910156 216.132812 C 219.988281 215.734375 220.101562 215.347656 220.253906 214.972656 C 220.402344 214.597656 220.589844 214.238281 220.808594 213.898438 C 221.03125 213.558594 221.28125 213.246094 221.5625 212.953125 Z M 221.5625 212.957031 " fill-opacity="1" fill-rule="nonzero"/><g fill="#000000" fill-opacity="1"><g transform="translate(39.383388, 345.451705)"><g><path d="M 5.921875 -13.984375 L 5.921875 -72.109375 L 19.703125 -72.109375 L 19.703125 -17.828125 C 19.703125 -16.578125 19.847656 -15.570312 20.140625 -14.8125 C 20.441406 -14.0625 20.96875 -13.554688 21.71875 -13.296875 C 22.476562 -13.035156 23.085938 -12.867188 23.546875 -12.796875 C 24.003906 -12.734375 24.757812 -12.703125 25.8125 -12.703125 L 50.546875 -12.703125 L 50.546875 0 L 20.890625 0 C 10.910156 0 5.921875 -4.660156 5.921875 -13.984375 Z M 5.921875 -13.984375 "/></g></g></g><g fill="#000000" fill-opacity="1"><g transform="translate(92.47913, 345.451705)"><g><path d="M 3.65625 -25.421875 C 3.65625 -30.804688 4.046875 -35.238281 4.828125 -38.71875 C 5.617188 -42.195312 7 -44.988281 8.96875 -47.09375 C 10.9375 -49.195312 13.378906 -50.671875 16.296875 -51.515625 C 19.222656 -52.367188 22.953125 -52.796875 27.484375 -52.796875 C 36.484375 -52.796875 42.707031 -50.828125 46.15625 -46.890625 C 49.601562 -42.953125 51.328125 -35.796875 51.328125 -25.421875 C 51.328125 -15.628906 49.632812 -8.859375 46.25 -5.109375 C 42.875 -1.367188 36.617188 0.5 27.484375 0.5 C 23.878906 0.5 20.742188 0.1875 18.078125 -0.4375 C 15.421875 -1.0625 13.15625 -2 11.28125 -3.25 C 9.414062 -4.5 7.921875 -6.15625 6.796875 -8.21875 C 5.679688 -10.289062 4.878906 -12.722656 4.390625 -15.515625 C 3.898438 -18.304688 3.65625 -21.609375 3.65625 -25.421875 Z M 17.4375 -25.421875 C 17.4375 -22.066406 17.597656 -19.40625 17.921875 -17.4375 C 18.253906 -15.46875 18.863281 -13.972656 19.75 -12.953125 C 20.644531 -11.929688 21.648438 -11.289062 22.765625 -11.03125 C 23.878906 -10.769531 25.453125 -10.640625 27.484375 -10.640625 C 29.265625 -10.640625 30.628906 -10.703125 31.578125 -10.828125 C 32.523438 -10.960938 33.441406 -11.289062 34.328125 -11.8125 C 35.222656 -12.34375 35.882812 -13.164062 36.3125 -14.28125 C 36.738281 -15.394531 37.050781 -16.820312 37.25 -18.5625 C 37.445312 -20.3125 37.546875 -22.597656 37.546875 -25.421875 C 37.546875 -28.441406 37.460938 -30.882812 37.296875 -32.75 C 37.128906 -34.625 36.847656 -36.203125 36.453125 -37.484375 C 36.054688 -38.765625 35.429688 -39.679688 34.578125 -40.234375 C 33.722656 -40.796875 32.769531 -41.191406 31.71875 -41.421875 C 30.675781 -41.648438 29.265625 -41.765625 27.484375 -41.765625 C 26.046875 -41.765625 24.863281 -41.695312 23.9375 -41.5625 C 23.019531 -41.4375 22.132812 -41.160156 21.28125 -40.734375 C 20.425781 -40.304688 19.785156 -39.75 19.359375 -39.0625 C 18.929688 -38.375 18.550781 -37.40625 18.21875 -36.15625 C 17.894531 -34.90625 17.679688 -33.425781 17.578125 -31.71875 C 17.484375 -30.007812 17.4375 -27.910156 17.4375 -25.421875 Z M 17.4375 -25.421875 "/></g></g></g><g fill="#000000" fill-opacity="1"><g transform="translate(147.64354, 345.451705)"><g><path d="M 3.453125 -10.046875 C 3.453125 -12.273438 3.957031 -14.226562 4.96875 -15.90625 C 5.988281 -17.582031 7.519531 -18.75 9.5625 -19.40625 C 9.03125 -19.738281 8.535156 -20.132812 8.078125 -20.59375 C 7.617188 -21.050781 7.207031 -21.539062 6.84375 -22.0625 C 6.488281 -22.59375 6.160156 -23.171875 5.859375 -23.796875 C 5.566406 -24.421875 5.304688 -25.0625 5.078125 -25.71875 C 4.847656 -26.375 4.648438 -27.046875 4.484375 -27.734375 C 4.316406 -28.421875 4.179688 -29.109375 4.078125 -29.796875 C 3.984375 -30.484375 3.921875 -31.171875 3.890625 -31.859375 C 3.859375 -32.554688 3.84375 -33.234375 3.84375 -33.890625 C 3.84375 -46.304688 9.882812 -52.515625 21.96875 -52.515625 L 53.796875 -52.515625 L 53.796875 -44.234375 L 47.984375 -42.453125 C 47.984375 -42.453125 48.078125 -42.207031 48.265625 -41.71875 C 48.460938 -41.226562 48.578125 -40.929688 48.609375 -40.828125 C 48.648438 -40.734375 48.75 -40.457031 48.90625 -40 C 49.070312 -39.539062 49.1875 -39.175781 49.25 -38.90625 C 49.320312 -38.644531 49.40625 -38.25 49.5 -37.71875 C 49.601562 -37.195312 49.671875 -36.691406 49.703125 -36.203125 C 49.734375 -35.710938 49.78125 -35.117188 49.84375 -34.421875 C 49.914062 -33.734375 49.953125 -33 49.953125 -32.21875 C 49.953125 -31.226562 49.882812 -30.253906 49.75 -29.296875 C 49.613281 -28.347656 49.414062 -27.347656 49.15625 -26.296875 C 48.894531 -25.253906 48.550781 -24.269531 48.125 -23.34375 C 47.695312 -22.425781 47.15625 -21.523438 46.5 -20.640625 C 45.84375 -19.753906 45.050781 -18.945312 44.125 -18.21875 C 43.207031 -17.5 42.175781 -16.875 41.03125 -16.34375 C 39.882812 -15.820312 38.535156 -15.410156 36.984375 -15.109375 C 35.441406 -14.816406 33.785156 -14.671875 32.015625 -14.671875 L 19.90625 -14.671875 C 19.175781 -14.671875 18.582031 -14.640625 18.125 -14.578125 C 17.664062 -14.515625 17.1875 -14.300781 16.6875 -13.9375 C 16.195312 -13.570312 15.953125 -13.0625 15.953125 -12.40625 C 15.953125 -11.363281 16.296875 -10.660156 16.984375 -10.296875 C 17.679688 -9.929688 18.65625 -9.75 19.90625 -9.75 L 35.953125 -9.75 C 40.816406 -9.75 44.609375 -8.453125 47.328125 -5.859375 C 50.054688 -3.265625 51.421875 0.625 51.421875 5.8125 L 51.421875 11.421875 C 51.421875 12.410156 51.351562 13.347656 51.21875 14.234375 C 51.09375 15.117188 50.914062 16.019531 50.6875 16.9375 C 50.457031 17.863281 50.113281 18.734375 49.65625 19.546875 C 49.195312 20.367188 48.671875 21.140625 48.078125 21.859375 C 47.484375 22.585938 46.757812 23.226562 45.90625 23.78125 C 45.050781 24.34375 44.097656 24.835938 43.046875 25.265625 C 41.992188 25.691406 40.796875 26.019531 39.453125 26.25 C 38.109375 26.476562 36.648438 26.59375 35.078125 26.59375 L 20.296875 26.59375 C 17.078125 26.59375 14.269531 26.066406 11.875 25.015625 C 9.476562 23.972656 7.554688 22.285156 6.109375 19.953125 C 4.660156 17.617188 3.9375 14.773438 3.9375 11.421875 L 3.9375 4.828125 L 8.578125 0 C 7.847656 -0.394531 7.1875 -0.90625 6.59375 -1.53125 C 6.007812 -2.15625 5.46875 -2.894531 4.96875 -3.75 C 4.476562 -4.601562 4.101562 -5.570312 3.84375 -6.65625 C 3.582031 -7.738281 3.453125 -8.867188 3.453125 -10.046875 Z M 17.828125 9.75 C 17.828125 11 17.972656 12.015625 18.265625 12.796875 C 18.566406 13.585938 19.03125 14.179688 19.65625 14.578125 C 20.28125 14.972656 20.90625 15.234375 21.53125 15.359375 C 22.15625 15.492188 22.988281 15.5625 24.03125 15.5625 L 32.109375 15.5625 C 33.359375 15.5625 34.359375 15.410156 35.109375 15.109375 C 35.867188 14.816406 36.429688 14.410156 36.796875 13.890625 C 37.160156 13.367188 37.40625 12.8125 37.53125 12.21875 C 37.664062 11.625 37.734375 10.898438 37.734375 10.046875 L 37.734375 6.203125 C 37.734375 5.804688 37.695312 5.441406 37.625 5.109375 C 37.5625 4.785156 37.5 4.476562 37.4375 4.1875 C 37.375 3.894531 37.257812 3.628906 37.09375 3.390625 C 36.925781 3.160156 36.742188 2.929688 36.546875 2.703125 C 36.347656 2.472656 36.117188 2.289062 35.859375 2.15625 C 35.597656 2.03125 35.300781 1.898438 34.96875 1.765625 C 34.644531 1.640625 34.285156 1.539062 33.890625 1.46875 C 33.492188 1.40625 33.066406 1.375 32.609375 1.375 L 21.96875 1.375 L 17.828125 1.078125 Z M 17.640625 -33.890625 C 17.640625 -28.503906 19.738281 -25.8125 23.9375 -25.8125 L 29.453125 -25.8125 C 33.984375 -25.8125 36.21875 -28.503906 36.15625 -33.890625 C 36.09375 -36.648438 35.550781 -38.601562 34.53125 -39.75 C 33.507812 -40.894531 31.785156 -41.46875 29.359375 -41.46875 L 24.140625 -41.46875 C 22.753906 -41.46875 21.617188 -41.253906 20.734375 -40.828125 C 19.847656 -40.398438 19.191406 -39.804688 18.765625 -39.046875 C 18.335938 -38.296875 18.039062 -37.523438 17.875 -36.734375 C 17.71875 -35.953125 17.640625 -35.003906 17.640625 -33.890625 Z M 17.640625 -33.890625 "/></g></g></g><g fill="#000000" fill-opacity="1"><g transform="translate(202.807949, 345.451705)"><g/></g></g><g fill="#000000" fill-opacity="1"><g transform="translate(234.823011, 345.451705)"><g><path d="M 5.921875 0 L 5.921875 -72.109375 L 19.703125 -72.109375 L 19.703125 0 Z M 5.921875 0 "/></g></g></g><g fill="#000000" fill-opacity="1"><g transform="translate(258.957455, 345.451705)"><g><path d="M 4.4375 0 L 4.4375 -52.3125 L 15.46875 -52.3125 L 18.234375 -46.703125 C 19.867188 -47.941406 21.03125 -48.773438 21.71875 -49.203125 C 22.414062 -49.628906 23.519531 -50.253906 25.03125 -51.078125 C 26.539062 -51.898438 28.066406 -52.457031 29.609375 -52.75 C 31.148438 -53.050781 32.875 -53.203125 34.78125 -53.203125 C 45.21875 -53.203125 50.4375 -47.09375 50.4375 -34.875 L 50.4375 0 L 36.65625 0 L 36.65625 -35.078125 C 36.65625 -37.566406 36.144531 -39.367188 35.125 -40.484375 C 34.101562 -41.609375 32.671875 -42.171875 30.828125 -42.171875 C 28.992188 -42.171875 27.367188 -41.988281 25.953125 -41.625 C 24.546875 -41.257812 23.265625 -40.765625 22.109375 -40.140625 C 20.960938 -39.515625 19.671875 -38.679688 18.234375 -37.640625 L 18.234375 0 Z M 4.4375 0 "/></g></g></g></svg>