<svg xmlns="http://www.w3.org/2000/svg" xmlns:xlink="http://www.w3.org/1999/xlink" width="500" zoomAndPan="magnify" viewBox="0 0 375 374.999991" height="500" preserveAspectRatio="xMidYMid meet" version="1.0"><defs><g/><clipPath id="b87491a5cb"><path d="M 69 12.5 L 305 12.5 L 305 248 L 69 248 Z M 69 12.5 " clip-rule="nonzero"/></clipPath></defs><g clip-path="url(#b87491a5cb)"><path fill="#000000" d="M 177.125 123.546875 C 207.636719 123.546875 232.507812 98.613281 232.507812 68.023438 C 232.507812 37.433594 207.636719 12.5 177.125 12.5 C 146.609375 12.5 121.738281 37.433594 121.738281 68.023438 C 121.738281 98.820312 146.609375 123.546875 177.125 123.546875 Z M 177.125 20.878906 C 203.039062 20.878906 224.148438 42.042969 224.148438 68.023438 C 224.148438 94.003906 203.039062 115.164062 177.125 115.164062 C 151.207031 115.164062 130.097656 94.003906 130.097656 68.023438 C 130.097656 42.042969 151.207031 20.878906 177.125 20.878906 Z M 177.125 135.90625 C 117.765625 135.90625 69.488281 184.304688 69.488281 243.808594 C 69.488281 246.113281 71.367188 248 73.667969 248 L 280.371094 248 C 282.667969 248 284.550781 246.113281 284.550781 243.808594 C 284.757812 184.304688 236.480469 135.90625 177.125 135.90625 Z M 78.058594 239.621094 C 80.355469 186.820312 123.828125 144.289062 177.125 144.289062 C 230.417969 144.289062 274.097656 186.609375 276.1875 239.621094 Z M 302.523438 28.84375 C 297.089844 31.777344 291.863281 35.335938 287.265625 39.320312 C 277.863281 47.488281 270.753906 57.757812 265.738281 69.699219 C 265.113281 71.164062 263.648438 72.214844 261.976562 72.214844 C 261.976562 72.214844 261.769531 72.214844 261.769531 72.214844 C 260.304688 72.214844 258.84375 71.375 258.007812 69.910156 L 243.167969 41.625 C 242.121094 39.527344 242.957031 37.015625 244.839844 35.964844 C 246.929688 34.917969 249.4375 35.757812 250.480469 37.640625 L 261.351562 58.386719 C 266.574219 48.539062 273.261719 39.945312 281.414062 32.613281 C 286.640625 28.003906 292.28125 24.234375 298.34375 20.878906 C 300.433594 19.832031 302.941406 20.671875 303.988281 22.558594 C 305.242188 25.070312 304.40625 27.585938 302.523438 28.84375 Z M 302.523438 28.84375 " fill-opacity="1" fill-rule="nonzero"/></g><g fill="#000000" fill-opacity="1"><g transform="translate(44.692384, 342.093611)"><g><path d="M 8.671875 0 L 8.671875 -71.640625 L 17.359375 -71.640625 L 17.359375 -7.703125 L 50.65625 -7.703125 L 50.65625 0 Z M 8.671875 0 "/></g></g></g><g fill="#000000" fill-opacity="1"><g transform="translate(100.103151, 342.093611)"><g><path d="M 29.390625 1.125 C 24.535156 1.125 20.28125 -0.03125 16.625 -2.34375 C 12.976562 -4.65625 10.132812 -7.882812 8.09375 -12.03125 C 6.050781 -16.1875 5.03125 -21.039062 5.03125 -26.59375 C 5.03125 -32.1875 6.050781 -37.070312 8.09375 -41.25 C 10.132812 -45.425781 12.976562 -48.664062 16.625 -50.96875 C 20.28125 -53.28125 24.535156 -54.4375 29.390625 -54.4375 C 34.234375 -54.4375 38.476562 -53.28125 42.125 -50.96875 C 45.78125 -48.664062 48.628906 -45.425781 50.671875 -41.25 C 52.710938 -37.070312 53.734375 -32.1875 53.734375 -26.59375 C 53.734375 -21.039062 52.710938 -16.1875 50.671875 -12.03125 C 48.628906 -7.882812 45.78125 -4.65625 42.125 -2.34375 C 38.476562 -0.03125 34.234375 1.125 29.390625 1.125 Z M 29.390625 -6.296875 C 33.078125 -6.296875 36.109375 -7.238281 38.484375 -9.125 C 40.859375 -11.019531 42.617188 -13.503906 43.765625 -16.578125 C 44.910156 -19.660156 45.484375 -23 45.484375 -26.59375 C 45.484375 -30.175781 44.910156 -33.519531 43.765625 -36.625 C 42.617188 -39.726562 40.859375 -42.234375 38.484375 -44.140625 C 36.109375 -46.054688 33.078125 -47.015625 29.390625 -47.015625 C 25.703125 -47.015625 22.664062 -46.054688 20.28125 -44.140625 C 17.90625 -42.234375 16.144531 -39.726562 15 -36.625 C 13.863281 -33.519531 13.296875 -30.175781 13.296875 -26.59375 C 13.296875 -23 13.863281 -19.660156 15 -16.578125 C 16.144531 -13.503906 17.90625 -11.019531 20.28125 -9.125 C 22.664062 -7.238281 25.703125 -6.296875 29.390625 -6.296875 Z M 29.390625 -6.296875 "/></g></g></g><g fill="#000000" fill-opacity="1"><g transform="translate(158.872151, 342.093611)"><g><path d="M 29.25 21.265625 C 23.25 21.265625 18.503906 20.175781 15.015625 18 C 11.535156 15.820312 8.957031 13.320312 7.28125 10.5 L 13.859375 5.875 C 14.597656 6.851562 15.539062 7.976562 16.6875 9.25 C 17.832031 10.519531 19.398438 11.628906 21.390625 12.578125 C 23.390625 13.523438 26.007812 14 29.25 14 C 33.582031 14 37.160156 12.945312 39.984375 10.84375 C 42.804688 8.75 44.21875 5.460938 44.21875 0.984375 L 44.21875 -9.9375 L 43.515625 -9.9375 C 42.910156 -8.957031 42.050781 -7.75 40.9375 -6.3125 C 39.832031 -4.875 38.25 -3.601562 36.1875 -2.5 C 34.125 -1.394531 31.34375 -0.84375 27.84375 -0.84375 C 23.507812 -0.84375 19.617188 -1.867188 16.171875 -3.921875 C 12.734375 -5.972656 10.015625 -8.957031 8.015625 -12.875 C 6.023438 -16.789062 5.03125 -21.546875 5.03125 -27.140625 C 5.03125 -32.648438 6 -37.453125 7.9375 -41.546875 C 9.875 -45.640625 12.566406 -48.8125 16.015625 -51.0625 C 19.472656 -53.3125 23.460938 -54.4375 27.984375 -54.4375 C 31.484375 -54.4375 34.265625 -53.859375 36.328125 -52.703125 C 38.390625 -51.546875 39.972656 -50.238281 41.078125 -48.78125 C 42.191406 -47.320312 43.050781 -46.128906 43.65625 -45.203125 L 44.5 -45.203125 L 44.5 -53.734375 L 52.46875 -53.734375 L 52.46875 1.546875 C 52.46875 6.160156 51.425781 9.914062 49.34375 12.8125 C 47.257812 15.71875 44.460938 17.851562 40.953125 19.21875 C 37.441406 20.582031 33.539062 21.265625 29.25 21.265625 Z M 28.96875 -8.25 C 33.9375 -8.25 37.742188 -9.929688 40.390625 -13.296875 C 43.035156 -16.671875 44.359375 -21.332031 44.359375 -27.28125 C 44.359375 -33.09375 43.050781 -37.832031 40.4375 -41.5 C 37.832031 -45.175781 34.007812 -47.015625 28.96875 -47.015625 C 25.46875 -47.015625 22.554688 -46.128906 20.234375 -44.359375 C 17.910156 -42.585938 16.171875 -40.207031 15.015625 -37.21875 C 13.867188 -34.238281 13.296875 -30.925781 13.296875 -27.28125 C 13.296875 -21.6875 14.613281 -17.113281 17.25 -13.5625 C 19.882812 -10.019531 23.789062 -8.25 28.96875 -8.25 Z M 28.96875 -8.25 "/></g></g></g><g fill="#000000" fill-opacity="1"><g transform="translate(218.900483, 342.093611)"><g/></g></g><g fill="#000000" fill-opacity="1"><g transform="translate(246.605883, 342.093611)"><g><path d="M 17.359375 -71.640625 L 17.359375 0 L 8.671875 0 L 8.671875 -71.640625 Z M 17.359375 -71.640625 "/></g></g></g><g fill="#000000" fill-opacity="1"><g transform="translate(272.63215, 342.093611)"><g><path d="M 15.8125 -32.328125 L 15.8125 0 L 7.5625 0 L 7.5625 -53.734375 L 15.53125 -53.734375 L 15.53125 -45.34375 L 16.234375 -45.34375 C 17.492188 -48.070312 19.40625 -50.269531 21.96875 -51.9375 C 24.53125 -53.601562 27.84375 -54.4375 31.90625 -54.4375 C 37.34375 -54.4375 41.734375 -52.769531 45.078125 -49.4375 C 48.421875 -46.101562 50.09375 -41.003906 50.09375 -34.140625 L 50.09375 0 L 41.84375 0 L 41.84375 -33.578125 C 41.84375 -37.804688 40.742188 -41.101562 38.546875 -43.46875 C 36.359375 -45.832031 33.351562 -47.015625 29.53125 -47.015625 C 25.582031 -47.015625 22.304688 -45.738281 19.703125 -43.1875 C 17.109375 -40.632812 15.8125 -37.015625 15.8125 -32.328125 Z M 15.8125 -32.328125 "/></g></g></g></svg>